<svg width="300" height="88.10876" viewBox="0 0 300 88.10876" xmlns="http://www.w3.org/2000/svg">
  <!-- Background rectangle (to be scaled horizontally) -->
  <g id="background" transform="scale(0.8,1)">
    <!-- We create a new simple rectangle matching the original outer bounds -->
    <rect x="0" y="0" width="300" height="88.10876" fill="#231f20" />
  </g>

  <!-- Letter cutouts remain at full size -->
  <g id="letters">
    <!-- This path is taken from the inner (cut-out) subpaths of the original compound path.
         (You would use a vector editor to extract the precise subpath data for the letters.) -->
    <path fill="#fff" d="
      M108.99686,0
      c-0.84039,-0.59499 -1.6226,-1.22558 -2.32097,-1.89326
      c-6.2251,-6.01905 -6.3119,-13.01046 -6.48945,-19.56145
      l0,-37.17539
      l19.91419,0
      l0,39.03551
      c0,2.65634 0.09074,5.39958 2.31208,7.52249
      c1.59894,1.68327 4.0008,2.30125 6.31092,2.30125
      c3.11203,0 5.1588,-1.15221 6.31485,-2.21129
      c2.30913,-2.21287 2.3979,-4.95611 2.3979,-7.61245
      l0,-39.03551
      l20.00298,0
      l0,33.28152
      c0,7.16738 0,16.4632 -7.37819,23.45532
      c-0.70526,0.66058 -1.48352,1.29118 -2.32294,1.89326
      l29.82144,0
      c-8.77885,-6.29848 -12.90393,-16.82304 -12.90393,-27.03186
      c0,-16.81712 11.29219,-33.90106 32.53796,-33.90106
      c9.51274,0 18.57964,3.36525 25.15981,10.0938
      c2.66818,2.74275 3.91301,4.86644 5.24463,7.34336
      l-16.62262,8.23457
      c-1.60286,-3.72016 -4.62418,-10.35767 -12.98186,-10.35767
      c-4.35588,0 -7.11185,2.0365 -8.44543,3.36437
      c-4.71201,4.51233 -4.71201,11.59391 -4.71201,14.07586
      c0,9.29109 3.47012,18.05583 13.24818,18.05583
      c9.2464,0 12.0024,-8.1452 12.71358,-10.2681
      l16.88992,8.14282
      c-1.60092,3.00909 -3.11108,5.8415 -6.13139,8.84988
      c-1.29808,1.27058 -2.70273,2.39911 -4.18623,3.3982
      l18.26399,0
      Z"/>
  </g>
</svg>
